<svg width="25" height="23" viewBox="0 0 25 23" fill="none" xmlns="http://www.w3.org/2000/svg">
<path d="M22.6757 12.6256H13.9542V20.5166C13.9542 20.9351 13.7705 21.3365 13.4434 21.6325C13.1162 21.9285 12.6726 22.0947 12.21 22.0947C11.7474 22.0947 11.3037 21.9285 10.9766 21.6325C10.6495 21.3365 10.4657 20.9351 10.4657 20.5166V12.6256H1.74428C1.28167 12.6256 0.838005 12.4593 0.510888 12.1633C0.183772 11.8674 0 11.4659 0 11.0474C0 10.6288 0.183772 10.2274 0.510888 9.93142C0.838005 9.63545 1.28167 9.46918 1.74428 9.46918H10.4657V1.5782C10.4657 1.15963 10.6495 0.758212 10.9766 0.462243C11.3037 0.166273 11.7474 0 12.21 0C12.6726 0 13.1162 0.166273 13.4434 0.462243C13.7705 0.758212 13.9542 1.15963 13.9542 1.5782V9.46918H22.6757C23.1383 9.46918 23.5819 9.63545 23.909 9.93142C24.2362 10.2274 24.4199 10.6288 24.4199 11.0474C24.4199 11.4659 24.2362 11.8674 23.909 12.1633C23.5819 12.4593 23.1383 12.6256 22.6757 12.6256Z" fill="#F4F4F4"/>
</svg>
